<?xml version="1.0" encoding="UTF-8" standalone="no"?>
<!-- Created with Inkscape (http://www.inkscape.org/) -->

<svg
   version="1.1"
   id="svg515"
   width="118.43055"
   height="77.145798"
   viewBox="0 0 118.43055 77.145798"
   sodipodi:docname="bulle_corail.svg"
   xml:space="preserve"
   xmlns:inkscape="http://www.inkscape.org/namespaces/inkscape"
   xmlns:sodipodi="http://sodipodi.sourceforge.net/DTD/sodipodi-0.dtd"
   xmlns="http://www.w3.org/2000/svg"
   xmlns:svg="http://www.w3.org/2000/svg"><defs
     id="defs519" /><sodipodi:namedview
     id="namedview517"
     pagecolor="#ffffff"
     bordercolor="#000000"
     borderopacity="0.25"
     inkscape:showpageshadow="2"
     inkscape:pageopacity="0.0"
     inkscape:pagecheckerboard="0"
     inkscape:deskcolor="#d1d1d1"
     showgrid="false"
     showguides="true"
     inkscape:zoom="3.3966538"
     inkscape:cx="15.161981"
     inkscape:cy="75.22109"
     inkscape:window-width="1440"
     inkscape:window-height="847"
     inkscape:window-x="208"
     inkscape:window-y="1105"
     inkscape:window-maximized="0"
     inkscape:current-layer="g521"><sodipodi:guide
       position="55.41968,101.94687"
       orientation="-1,0"
       id="guide4032"
       inkscape:locked="false"
       inkscape:label=""
       inkscape:color="rgb(0,134,229)" /><sodipodi:guide
       position="0,51.732353"
       orientation="1,0"
       id="guide4034"
       inkscape:locked="false" /><sodipodi:guide
       position="-3.6742331,38.566353"
       orientation="0,1"
       id="guide4036"
       inkscape:locked="false"
       inkscape:label=""
       inkscape:color="rgb(0,134,229)" /></sodipodi:namedview><g
     inkscape:groupmode="layer"
     inkscape:label="Image"
     id="g521"
     transform="translate(-2.5336506,-6.6475525)"><path
       id="rect525"
       style="fill:#ff9f85;fill-opacity:1;stroke-width:0.999999"
       d="m 40.990433,6.6475527 c -21.305092,0 -38.4567824,17.1516893 -38.4567824,38.4567823 0,21.305092 17.1516904,38.456782 38.4567824,38.456782 h 33.865016 c 6.742762,0 13.068281,-1.720728 18.566964,-4.744629 L 120.9642,83.793351 108.20014,64.309209 c 3.24813,-5.646078 5.11209,-12.197853 5.11209,-19.204874 0,-21.305093 -17.151689,-38.4567823 -38.456781,-38.4567823 z"
       inkscape:export-filename="bulle_corail3.svg"
       inkscape:export-xdpi="96"
       inkscape:export-ydpi="96" /><g
       id="g4030"
       transform="matrix(0.1303086,0,0,0.1303086,28.099891,15.385307)"
       style="fill:#fffdf6;fill-opacity:1;stroke-width:7.67409"><path
         id="milt-svg"
         d="m 457.996,228.998 c 0,-29.372 -28.261,-53.269 -62.998,-53.269 -10.401,0 -30.506,2.241 -52.363,6.199 18.254,-12.657 34.055,-25.288 41.41,-32.643 24.563,-24.563 27.648,-61.443 6.879,-82.213 -20.769,-20.771 -57.65,-17.684 -82.212,6.879 -7.355,7.355 -19.987,23.157 -32.643,41.41 3.958,-21.857 6.199,-41.962 6.199,-52.363 C 282.267,28.261 258.371,0 228.998,0 c -29.373,0 -53.269,28.261 -53.269,62.998 0,10.401 2.242,30.507 6.199,52.364 C 169.271,97.109 156.64,81.307 149.285,73.951 v 0 C 124.722,49.388 87.842,46.304 67.072,67.072 c -20.769,20.77 -17.683,57.65 6.88,82.213 7.355,7.355 23.156,19.986 41.41,32.643 C 93.505,177.971 73.4,175.729 62.998,175.729 28.261,175.729 0,199.626 0,228.998 c 0,29.372 28.261,53.269 62.998,53.269 10.401,0 30.507,-2.242 52.364,-6.199 -18.254,12.657 -34.055,25.289 -41.41,32.643 -24.563,24.563 -27.649,61.443 -6.879,82.213 8.966,8.966 21.448,13.855 34.952,13.855 2.114,0 4.255,-0.12 6.41,-0.363 14.884,-1.678 29.392,-8.913 40.85,-20.372 7.355,-7.354 19.987,-23.156 32.644,-41.41 -3.958,21.857 -6.199,41.963 -6.199,52.364 0,34.737 23.896,62.998 53.269,62.998 29.373,0 53.269,-28.261 53.269,-62.998 0,-10.401 -2.242,-30.507 -6.199,-52.365 12.657,18.254 25.288,34.056 32.644,41.411 11.458,11.459 25.966,18.694 40.85,20.372 2.156,0.243 4.296,0.363 6.411,0.363 13.502,0 25.986,-4.89 34.951,-13.855 20.77,-20.77 17.684,-57.65 -6.879,-82.213 -7.354,-7.355 -23.156,-19.986 -41.41,-32.643 21.857,3.958 41.962,6.199 52.363,6.199 34.736,0 62.997,-23.897 62.997,-53.269 z M 329.924,95.164 c 12.648,-12.646 30.866,-15.797 39.786,-6.879 8.919,8.919 5.769,27.14 -6.879,39.787 -7.705,7.704 -29.105,24.305 -51.583,38.747 -6.641,4.268 -12.556,7.823 -17.794,10.778 -3.854,-4.823 -8.233,-9.203 -13.056,-13.056 2.955,-5.238 6.51,-11.152 10.778,-17.793 14.444,-22.477 31.044,-43.879 38.748,-51.584 z M 176.501,228.998 c 0,-28.947 23.55,-52.497 52.497,-52.497 28.947,0 52.497,23.55 52.497,52.497 0,28.947 -23.55,52.497 -52.497,52.497 -28.947,0 -52.497,-23.55 -52.497,-52.497 z M 228.998,30 c 12.613,0 23.269,15.111 23.269,32.998 0,10.896 -3.395,37.767 -9.076,63.874 -1.674,7.694 -3.338,14.375 -4.949,20.16 -3.037,-0.34 -6.118,-0.531 -9.244,-0.531 -3.126,0 -6.207,0.191 -9.244,0.531 -1.611,-5.786 -3.275,-12.466 -4.949,-20.16 -5.681,-26.107 -9.076,-52.979 -9.076,-63.874 C 205.729,45.111 216.385,30 228.998,30 Z M 95.165,128.072 C 82.518,115.425 79.367,97.204 88.286,88.285 c 3.437,-3.437 8.254,-5.081 13.602,-5.081 8.531,0 18.411,4.186 26.185,11.96 7.705,7.705 24.305,29.106 38.748,51.584 4.269,6.644 7.822,12.557 10.777,17.794 -4.822,3.853 -9.201,8.232 -13.054,13.054 -5.238,-2.954 -11.152,-6.509 -17.794,-10.777 -22.48,-14.443 -43.881,-31.043 -51.585,-38.747 z M 62.998,252.267 C 45.111,252.267 30,241.611 30,228.998 c 0,-12.613 15.111,-23.269 32.998,-23.269 10.896,0 37.767,3.395 63.874,9.076 7.694,1.674 14.376,3.338 20.161,4.949 -0.34,3.037 -0.531,6.117 -0.531,9.243 0,3.126 0.191,6.207 0.531,9.243 -5.785,1.611 -12.467,3.275 -20.161,4.949 -26.107,5.683 -52.978,9.078 -63.874,9.078 z m 65.073,110.564 c -6.576,6.576 -14.958,10.868 -22.999,11.774 -3.99,0.451 -11.48,0.413 -16.787,-4.895 -8.919,-8.919 -5.769,-27.14 6.879,-39.787 7.705,-7.704 29.105,-24.304 51.583,-38.747 6.644,-4.269 12.556,-7.822 17.795,-10.777 3.853,4.822 8.233,9.202 13.055,13.055 -2.956,5.239 -6.51,11.153 -10.778,17.793 -14.443,22.479 -31.043,43.88 -38.748,51.584 z m 100.927,65.165 c -12.613,0 -23.269,-15.111 -23.269,-32.998 0,-10.896 3.395,-37.767 9.076,-63.874 1.674,-7.693 3.338,-14.376 4.948,-20.16 3.037,0.34 6.118,0.531 9.244,0.531 3.126,0 6.207,-0.191 9.244,-0.531 1.611,5.786 3.275,12.467 4.949,20.16 5.682,26.107 9.076,52.979 9.076,63.874 0.001,17.887 -10.655,32.998 -23.268,32.998 z m 133.834,-98.072 c 12.647,12.647 15.798,30.868 6.879,39.787 -5.307,5.307 -12.798,5.344 -16.787,4.895 -8.04,-0.906 -16.423,-5.198 -22.999,-11.774 -7.704,-7.705 -24.305,-29.105 -38.748,-51.583 -4.268,-6.642 -7.821,-12.554 -10.777,-17.794 4.822,-3.854 9.201,-8.232 13.055,-13.055 5.239,2.955 11.151,6.509 17.794,10.777 22.477,14.442 43.877,31.043 51.583,38.747 z M 331.125,243.19 c -7.693,-1.674 -14.376,-3.338 -20.161,-4.948 0.34,-3.037 0.531,-6.118 0.531,-9.244 0,-3.126 -0.191,-6.207 -0.531,-9.244 5.786,-1.61 12.467,-3.274 20.161,-4.949 26.106,-5.682 52.978,-9.076 63.873,-9.076 17.887,0 32.998,10.655 32.998,23.269 0,12.614 -15.111,23.269 -32.998,23.269 -10.896,0 -37.767,-3.395 -63.873,-9.077 z"
         style="fill:#fffdf6;fill-opacity:1;stroke-width:7.67409" /><g
         id="g3979"
         style="fill:#fffdf6;fill-opacity:1;stroke-width:7.67409">
</g><g
         id="g3981"
         style="fill:#fffdf6;fill-opacity:1;stroke-width:7.67409">
</g><g
         id="g3983"
         style="fill:#fffdf6;fill-opacity:1;stroke-width:7.67409">
</g><g
         id="g3985"
         style="fill:#fffdf6;fill-opacity:1;stroke-width:7.67409">
</g><g
         id="g3987"
         style="fill:#fffdf6;fill-opacity:1;stroke-width:7.67409">
</g><g
         id="g3989"
         style="fill:#fffdf6;fill-opacity:1;stroke-width:7.67409">
</g><g
         id="g3991"
         style="fill:#fffdf6;fill-opacity:1;stroke-width:7.67409">
</g><g
         id="g3993"
         style="fill:#fffdf6;fill-opacity:1;stroke-width:7.67409">
</g><g
         id="g3995"
         style="fill:#fffdf6;fill-opacity:1;stroke-width:7.67409">
</g><g
         id="g3997"
         style="fill:#fffdf6;fill-opacity:1;stroke-width:7.67409">
</g><g
         id="g3999"
         style="fill:#fffdf6;fill-opacity:1;stroke-width:7.67409">
</g><g
         id="g4001"
         style="fill:#fffdf6;fill-opacity:1;stroke-width:7.67409">
</g><g
         id="g4003"
         style="fill:#fffdf6;fill-opacity:1;stroke-width:7.67409">
</g><g
         id="g4005"
         style="fill:#fffdf6;fill-opacity:1;stroke-width:7.67409">
</g><g
         id="g4007"
         style="fill:#fffdf6;fill-opacity:1;stroke-width:7.67409">
</g></g></g></svg>
